<?xml version="1.0" standalone="no"?>
<!DOCTYPE svg PUBLIC "-//W3C//DTD SVG 20010904//EN"
 "http://www.w3.org/TR/2001/REC-SVG-20010904/DTD/svg10.dtd">
<svg version="1.0" xmlns="http://www.w3.org/2000/svg"
 width="512.000000pt" height="512.000000pt" viewBox="0 0 512.000000 512.000000"
 preserveAspectRatio="xMidYMid meet">

<g transform="translate(0.000000,512.000000) scale(0.100000,-0.100000)"
fill="#000000" stroke="none">
<path d="M2387 4949 c-447 -30 -894 -198 -1267 -475 -133 -99 -373 -338 -473
-472 -253 -338 -412 -736 -468 -1167 -15 -119 -15 -425 0 -550 56 -451 235
-880 516 -1230 141 -177 361 -374 561 -505 384 -251 827 -382 1294 -383 333
-1 606 50 902 169 794 319 1349 1023 1479 1879 25 165 30 471 10 625 -69 538
-291 1003 -660 1383 -204 210 -414 363 -666 487 -292 142 -570 216 -900 240
-153 11 -156 11 -328 -1z m1242 -1031 c74 -27 153 -80 197 -132 81 -94 132
-246 119 -359 -9 -78 -436 -1412 -482 -1507 -50 -104 -159 -213 -263 -263 -41
-20 -244 -90 -450 -156 -206 -66 -510 -163 -675 -216 -271 -88 -309 -98 -396
-102 -118 -7 -202 15 -296 76 -143 92 -227 281 -203 454 13 84 439 1416 480
1497 44 87 163 206 250 250 36 18 308 110 605 205 781 250 857 273 890 279 54
8 167 -5 224 -26z"/>
<path d="M3430 3613 c-45 -8 -1331 -423 -1363 -439 -45 -23 -95 -72 -118 -116
-29 -57 -449 -1374 -449 -1409 0 -72 78 -149 149 -149 31 0 1306 403 1386 438
54 23 112 77 137 126 28 56 448 1370 448 1403 0 40 -39 112 -69 127 -32 17
-87 26 -121 19z m-708 -783 c46 -13 103 -76 112 -123 14 -74 -7 -111 -132
-240 -65 -66 -137 -133 -161 -148 -116 -75 -253 -3 -253 131 0 67 18 93 170
242 148 145 179 161 264 138z"/>
</g>
</svg>
